REM GENRE "Classic rock"
REM DATE 1967
PERFORMER "The Yardbirds"
TITLE "Little games"
FILE "The Yardbirds - Little games.wav" WAVE
  TRACK 01 AUDIO
    TITLE "Little games"
    PERFORMER "The Yardbirds"
    INDEX 01 00:00:00
  TRACK 02 AUDIO
    TITLE "Smile on me"
    PERFORMER "The Yardbirds"
    INDEX 00 02:26:37
    INDEX 01 02:28:20
  TRACK 03 AUDIO
    TITLE "White summer"
    PERFORMER "The Yardbirds"
    INDEX 00 05:43:20
    INDEX 01 05:45:05
  TRACK 04 AUDIO
    TITLE "Tinker, tailor, soldier, sailor"
    PERFORMER "The Yardbirds"
    INDEX 00 09:41:10
    INDEX 01 09:41:40
  TRACK 05 AUDIO
    TITLE "Glimpses"
    PERFORMER "The Yardbirds"
    INDEX 00 12:29:32
    INDEX 01 12:30:42
  TRACK 06 AUDIO
    TITLE "Drinking muddy water"
    PERFORMER "The Yardbirds"
    INDEX 00 16:53:42
    INDEX 01 16:55:00
  TRACK 07 AUDIO
    TITLE "No excess baggage"
    PERFORMER "The Yardbirds"
    INDEX 00 19:46:55
    INDEX 01 19:48:17
  TRACK 08 AUDIO
    TITLE "Stealing stealing"
    PERFORMER "The Yardbirds"
    INDEX 00 22:19:45
    INDEX 01 22:21:10
  TRACK 09 AUDIO
    TITLE "Only the black rose"
    PERFORMER "The Yardbirds"
    INDEX 00 24:44:17
    INDEX 01 24:45:50
  TRACK 10 AUDIO
    TITLE "Little soldier boy"
    PERFORMER "The Yardbirds"
    INDEX 00 27:36:57
    INDEX 01 27:38:15
  TRACK 11 AUDIO
    TITLE "Puzzles [1991 US stereo mix]"
    PERFORMER "The Yardbirds"
    INDEX 00 30:13:40
    INDEX 01 30:17:42
  TRACK 12 AUDIO
    TITLE "I remember the night [1991 US stereo mix]"
    PERFORMER "The Yardbirds"
    INDEX 00 32:26:52
    INDEX 01 32:28:10
  TRACK 13 AUDIO
    TITLE "Ha ha said the clown"
    PERFORMER "The Yardbirds"
    INDEX 00 35:31:17
    INDEX 01 35:31:67
  TRACK 14 AUDIO
    TITLE "Ten little Indians [1991 US stereo mix]"
    PERFORMER "The Yardbirds"
    INDEX 00 37:59:07
    INDEX 01 38:00:50
  TRACK 15 AUDIO
    TITLE "Goodnight sweet Josephine [unphased version]"
    PERFORMER "The Yardbirds"
    INDEX 00 40:15:32
    INDEX 01 40:16:25
  TRACK 16 AUDIO
    TITLE "Think about it"
    PERFORMER "The Yardbirds"
    INDEX 00 42:57:46
    INDEX 01 42:59:02
  TRACK 17 AUDIO
    TITLE "Goodnight sweet Josephine [phased version (US single)]"
    PERFORMER "The Yardbirds"
    INDEX 00 46:43:67
    INDEX 01 46:45:37
  TRACK 18 AUDIO
    TITLE "Most likely you'll go your own way (and I'll go mine) [BBC session]"
    PERFORMER "The Yardbirds"
    INDEX 00 49:28:67
    INDEX 01 49:32:52
  TRACK 19 AUDIO
    TITLE "Liitle games [BBC session]"
    PERFORMER "The Yardbirds"
    INDEX 00 52:23:01
    INDEX 01 52:23:55
  TRACK 20 AUDIO
    TITLE "Drinking muddy water [BBC session]"
    PERFORMER "The Yardbirds"
    INDEX 00 54:46:25
    INDEX 01 54:47:60
  TRACK 21 AUDIO
    TITLE "Think about it [BBC session]"
    PERFORMER "The Yardbirds"
    INDEX 00 57:28:46
    INDEX 01 57:31:02
  TRACK 22 AUDIO
    TITLE "Goodnight sweet Josephine [BBC session]"
    PERFORMER "The Yardbirds"
    INDEX 00 60:32:15
    INDEX 01 60:34:32
  TRACK 23 AUDIO
    TITLE "My baby [BBC session]"
    PERFORMER "The Yardbirds"
    INDEX 00 63:05:33
    INDEX 01 63:07:22
  TRACK 24 AUDIO
    TITLE "White summer [BBC session]"
    PERFORMER "The Yardbirds"
    INDEX 00 65:57:05
    INDEX 01 66:03:27
  TRACK 25 AUDIO
    TITLE "Dazed and confused [BBC session]"
    PERFORMER "The Yardbirds"
    INDEX 00 70:28:47
    INDEX 01 70:29:57
